<svg width="72" height="72" viewBox="0 0 72 72" fill="none" xmlns="http://www.w3.org/2000/svg">

  <defs>
    <radialGradient id="paint0" cx="0" cy="0" r="1"
      gradientUnits="userSpaceOnUse"
      gradientTransform="translate(36 58) scale(28 9)">
      <stop offset="0%" stop-color="#ff4d6d"/>
      <stop offset="100%" stop-color="#6a1b9a"/>
    </radialGradient>

    <radialGradient id="paint1" cx="0" cy="0" r="1"
      gradientUnits="userSpaceOnUse"
      gradientTransform="translate(36 60) scale(26 6)">
      <stop offset="0%" stop-color="#ff7597"/>
      <stop offset="100%" stop-color="#8e24aa"/>
    </radialGradient>

    <radialGradient id="paint2"
      cx="52%" cy="42%" r="68%">
      <stop offset="0%" stop-color="#c04bff"/>
      <stop offset="32%" stop-color="#8a2be2"/>
      <stop offset="60%" stop-color="#b83674"/>
      <stop offset="85%" stop-color="#2a0830"/>
      <stop offset="100%" stop-color="#140518"/>
    </radialGradient>
  </defs>

  <path fill-rule="evenodd" clip-rule="evenodd"
    d="M37.2 53.3992C37.2 52.7365 36.6628 52.1992 36 52.1992H34.8C34.1373 52.1992 33.6 52.7365 33.6 53.3992V56.2636C33.6 56.9129 33.0834 57.4433 32.4347 57.4739C30.3013 57.5744 28.1719 57.7834 26.0546 58.1011L19.444 59.0926C18.2692 59.2688 17.4 60.2782 17.4 61.4662V62.0992C17.4 62.4304 17.6686 62.6992 18 62.6992H52.8C53.1314 62.6992 53.4 62.4304 53.4 62.0992V61.4662C53.4 60.2782 52.5309 59.2688 51.3561 59.0926L44.7454 58.1011C42.6282 57.7834 40.4987 57.5744 38.3653 57.4739C37.7167 57.4433 37.2 56.9129 37.2 56.2636V53.3992Z"
    fill="url(#paint0)" />

  <path
    d="M18.6 60.7388C18.6 60.2306 18.9587 59.796 19.4602 59.711C22.0196 59.2775 29.7585 58.0508 35.4 58.0508C41.0415 58.0508 48.7804 59.2775 51.3398 59.711C51.8412 59.796 52.2 60.2306 52.2 60.7388C52.2 60.902 52.0575 61.0268 51.8967 61.0004C50.1219 60.707 40.9704 59.2409 35.4 59.2409C29.8295 59.2409 20.678 60.707 18.9033 61.0004C18.7425 61.0268 18.6 60.902 18.6 60.7388Z"
    fill="url(#paint1)" />

  <path
    d="M63 12H8.99995C8.00584 12 7.19995 12.8059 7.19995 13.8V51.6C7.19995 52.5941 8.00584 53.4 8.99995 53.4H63C63.9941 53.4 64.8 52.5941 64.8 51.6V13.8C64.8 12.8059 63.9941 12 63 12Z"
    fill="url(#paint2)"
    stroke="url(#paint0)"
    stroke-width="1"
    stroke-linejoin="round" />

</svg>